<svg viewBox="0 0 55 55" fill="none" xmlns="http://www.w3.org/2000/svg">
  <circle cx="27.5" cy="27.5" r="27.5" fill="#56CA00"/>
  <path d="M30.2935 28.3793C30.2935 28.084 30.5361 27.8449 30.832 27.8449H31.7168C32.0128 27.8449 32.2554 28.084 32.2554 28.3793C32.2554 28.6745 32.0157 28.9137 31.7168 28.9137H30.832C30.5332 28.9137 30.2935 28.6775 30.2935 28.3793ZM31.7139 23.8323H30.8291C30.5332 23.8323 30.2905 24.0744 30.2905 24.3667C30.2905 24.662 30.5332 24.9011 30.8291 24.9011H31.7139C32.0098 24.9011 32.2524 24.659 32.2524 24.3667C32.2524 24.0715 32.0098 23.8323 31.7139 23.8323ZM42 29.1824C42 33.065 38.8426 36.2125 34.9483 36.2125H19.2172C15.7816 36.2125 13 33.4371 13 30.0121C13 27.0506 15.0833 24.5763 17.8679 23.9593C19.0219 19.9408 22.7328 17 27.1301 17C30.8557 17 34.0871 19.1081 35.691 22.1907C39.2361 22.5597 42 25.5507 42 29.1824ZM21.9012 25.9257H33.0958V23.7142C33.0958 23.2093 32.6874 22.8018 32.1814 22.8018H22.8186C22.3126 22.8018 21.9042 23.2093 21.9042 23.7142L21.9012 25.9257ZM21.9042 26.8174V29.9412H33.0988V26.8174H21.9042ZM33.0988 30.8388H21.9042V33.0503C21.9042 33.5552 22.3126 33.9626 22.8186 33.9626H32.1814C32.6874 33.9626 33.0958 33.5552 33.0958 33.0503L33.0988 30.8388ZM30.8291 32.9292H31.7139C32.0098 32.9292 32.2524 32.6901 32.2524 32.3948C32.2524 32.0995 32.0098 31.8604 31.7139 31.8604H30.8291C30.5332 31.8604 30.2905 32.1025 30.2905 32.3948C30.2935 32.6901 30.5332 32.9292 30.8291 32.9292Z" fill="white"/>
</svg>
