<svg viewBox="0 0 55 55" fill="none" xmlns="http://www.w3.org/2000/svg">
  <circle cx="27.5" cy="27.5" r="27.5" fill="#FFB400"/>
  <path d="M27.8408 13.0431C28.05 13.0003 28.8788 13.002 29.0765 13.0003C34.7199 12.9558 42.5466 17.7572 42.998 26.8872V38.2861C42.998 40.3375 41.3042 42 39.2462 42C37.7633 42 35.7481 40.1002 35.7481 38.2927V26.8938C35.5389 23.8851 33.1002 20.499 28.9942 20.2436C28.7404 20.2272 28.1637 20.2173 27.8391 20.2601" fill="white"/>
  <path d="M42.9948 38.375C42.9948 40.3769 41.3718 41.9999 39.3698 41.9999C37.3679 41.9999 35.7482 40.3769 35.7482 38.375C35.7482 36.373 37.3679 34.75 39.3698 34.75C41.3718 34.75 42.9948 36.373 42.9948 38.375Z" fill="white"/>
  <path d="M28.0368 41.8748C30.113 41.8748 31.7953 40.2238 31.7953 38.1889C31.7953 36.1523 30.0718 34.6743 27.9973 34.6743C27.9841 34.6743 27.9709 34.6759 27.9578 34.6759C24.3888 34.4288 21.0505 31.2866 21.2944 26.9795L21.2994 26.9103C21.5053 23.5308 24.3888 20.4644 28.0385 20.2535C30.1146 20.2535 31.7969 18.764 31.7969 16.7291C31.7969 14.6942 30.113 13.0415 28.0368 13.0415C27.9528 13.0415 27.8688 13.0366 27.7847 13.0415C21.4888 13.2606 14.0741 18.4987 14 27.4013V27.4557C14 36.4901 21.9238 41.8731 27.8292 41.8731H28.0368V41.8748Z" fill="white"/>
</svg>
