<svg viewBox="0 0 316 354" fill="none" xmlns="http://www.w3.org/2000/svg">
  <path d="M172.886 289.435C188.179 249.539 273.292 260.178 256.669 300.075C308.162 276.136 304.06 326.007 264.648 334.651C215.442 345.29 63.171 344.627 42.5577 334.651C21.279 317.364 49.8718 284.781 106.392 301.405C91.0977 223.607 155.598 250.869 172.886 289.435Z" fill="#E2EEF9"/>
  <path d="M159.441 209.481C140.142 209.481 126.632 222.991 126.632 242.678C126.632 262.364 140.142 276.26 159.441 276.26C178.742 276.26 192.638 262.364 192.638 242.678C192.638 222.991 178.742 209.481 159.441 209.481ZM72.9772 90.9793H125.86C126.245 67.8193 136.282 56.6257 155.196 56.6257C172.18 56.6257 182.216 63.9596 182.216 80.1714C182.216 117.228 134.738 120.702 134.738 180.146H186.076C186.076 134.984 245.52 127.264 245.52 68.9779C245.52 25.7454 213.482 1.42762 161.758 1.42762C106.559 1.42762 73.3637 34.2378 72.9772 90.9793Z" fill="#BAD4F0"/>
  <path d="M242.884 322.233C246.003 314.469 242.94 288.599 235.167 289.7C224.738 291.176 231.324 317.964 242.884 322.233Z" fill="#BDD2E9"/>
  <path d="M244.637 322.757C248.969 315.599 271.51 312.615 275.3 319.489C280.386 328.712 254.996 329.433 244.637 322.757Z" fill="#BDD2E9"/>
  <path d="M256.967 298.933C262.772 295.648 269.417 277.069 263.464 275.14C256.344 272.833 251.888 290.521 256.967 298.933Z" fill="#BDD2E9"/>
  <path d="M258.048 299.913C262.444 294.897 282.766 292.738 282.635 298.996C282.51 305.075 263.446 304.864 258.048 299.913Z" fill="#BDD2E9"/>
  <path d="M247.806 309.763C253.096 304.744 256.107 283.725 250.349 282.217C242.572 280.183 240.195 302.183 247.806 309.763Z" fill="#BDD2E9"/>
  <path d="M249.275 310.383C254.864 304.243 277.421 301.737 277.14 307.502C276.702 316.445 256.216 315.045 249.275 310.383Z" fill="#BDD2E9"/>
  <path d="M305.397 255.133C306.621 251.812 303.527 241.756 300.444 242.99C296.302 244.647 300.456 253.471 305.397 255.133Z" fill="#BDD2E9"/>
  <path d="M306.168 255.204C306.435 251.676 311.87 245.216 314.248 247.565C317.419 250.696 311.353 255.744 306.168 255.204Z" fill="#BDD2E9"/>
  <path d="M300.221 265.64C302.469 262.19 300.517 250.091 296.762 250.999C291.737 252.214 295.048 262.473 300.221 265.64Z" fill="#BDD2E9"/>
  <path d="M301.077 265.921C302.294 261.987 311.915 254.669 314.003 258.385C316.543 262.904 306.819 267.877 301.077 265.921Z" fill="#BDD2E9"/>
  <path d="M292.813 274.09C296.018 270.951 294.855 256.392 290.694 257.028C285.196 257.87 288.059 269.501 292.813 274.09Z" fill="#BDD2E9"/>
  <path d="M293.656 274.59C295.879 270.694 306.92 265.708 308.547 269.762C310.649 275.003 299.301 278.025 293.656 274.59Z" fill="#BDD2E9"/>
  <path d="M281.698 282.243C286.233 279.298 289.64 263.949 284.752 262.595C278.573 260.883 277.173 275.688 281.698 282.243Z" fill="#BDD2E9"/>
  <path d="M282.575 283.035C286.13 278.961 299.846 274.629 301.091 279.254C302.858 285.827 288.426 288.438 282.575 283.035Z" fill="#BDD2E9"/>
  <path d="M269.346 289.561C274.68 286.659 280.097 271.618 275.267 268.598C269.153 264.774 264.852 281.826 269.346 289.561Z" fill="#BDD2E9"/>
  <path d="M270.258 290.524C274.595 286.273 292.173 285.703 291.23 290.62C290.115 296.43 276.338 297.085 270.258 290.524Z" fill="#BDD2E9"/>
  <path d="M242.048 339.018C242.084 342.542 246.947 342.111 246.166 338.43C239.761 282.016 302.142 298.156 308.371 245.23C308.629 243.078 306.711 242.894 306.454 245.048C300.463 295.946 235.332 279.854 242.048 339.018Z" fill="#BDD2E9"/>
  <path d="M307.145 247.556C312.74 244.102 312.388 235.232 309.112 234.69C305.175 234.041 303.625 243.942 307.145 247.556Z" fill="#BDD2E9"/>
  <path d="M216.522 328.629C216.463 329.443 217.527 329.259 218.9 328.221C220.275 327.182 221.436 325.68 221.495 324.867C222.119 316.523 231.553 290.701 246.846 263.465C257.208 245.012 270.199 226.025 284.795 211.738C286.092 210.469 286.77 209.143 286.311 208.778C285.851 208.413 284.427 209.145 283.129 210.415C267.237 225.972 253.39 246.116 242.5 265.508C226.84 293.399 217.169 319.976 216.522 328.629Z" fill="#ABC2DE"/>
  <path d="M238.887 283.309C245.701 284.943 270.283 281.705 270.956 272.982C271.786 262.232 242.697 278.432 238.882 280.206C234.51 282.24 235.064 282.391 238.887 283.309Z" fill="#ABC2DE"/>
  <path d="M246.752 266.766C252.486 268.142 273.172 265.418 273.739 258.076C274.438 249.03 249.956 262.662 246.746 264.156C243.068 265.868 243.533 265.995 246.752 266.766Z" fill="#ABC2DE"/>
  <path d="M254.897 252.458C259.957 253.672 278.213 251.268 278.714 244.789C279.33 236.806 257.724 248.836 254.893 250.155C251.646 251.665 252.057 251.778 254.897 252.458Z" fill="#ABC2DE"/>
  <path d="M263.983 240.37C267.92 241.316 282.126 239.445 282.515 234.403C282.994 228.191 266.183 237.553 263.98 238.579C261.453 239.753 261.773 239.84 263.983 240.37Z" fill="#ABC2DE"/>
  <path d="M272.779 228.817C276.043 229.599 287.817 228.049 288.14 223.87C288.537 218.721 274.602 226.48 272.776 227.33C270.682 228.305 270.947 228.378 272.779 228.817Z" fill="#ABC2DE"/>
  <path d="M279.965 218.573C282.33 219.14 290.864 218.016 291.097 214.988C291.386 211.255 281.287 216.879 279.963 217.495C278.445 218.202 278.638 218.255 279.965 218.573Z" fill="#ABC2DE"/>
  <path d="M284.687 210.908C287.389 209.806 295.336 203.135 293.853 200.401C292.027 197.031 285.056 208.582 284.074 209.993C282.947 211.61 283.171 211.526 284.687 210.908Z" fill="#ABC2DE"/>
  <path d="M232.54 279.466C228.01 274.027 219.646 250.251 226.96 245.667C235.974 240.019 235.067 273.789 235.254 278.058C235.467 282.951 235.083 282.517 232.54 279.466Z" fill="#ABC2DE"/>
  <path d="M241.379 263.393C237.712 258.673 231.274 238.358 237.514 234.694C245.201 230.18 243.631 258.672 243.685 262.282C243.746 266.419 243.435 266.041 241.379 263.393Z" fill="#ABC2DE"/>
  <path d="M250.377 248.396C247.509 243.905 243.293 225.332 248.971 222.579C255.969 219.185 252.66 244.381 252.459 247.593C252.232 251.276 251.986 250.916 250.377 248.396Z" fill="#ABC2DE"/>
  <path d="M259.379 237.133C257.214 233.584 254.19 219.035 258.634 216.978C264.11 214.443 261.204 234.038 261.007 236.54C260.78 239.408 260.594 239.123 259.379 237.133Z" fill="#ABC2DE"/>
  <path d="M268.876 225.491C267.023 222.597 264.293 210.622 267.954 208.843C272.465 206.651 270.346 222.901 270.219 224.973C270.074 227.348 269.915 227.115 268.876 225.491Z" fill="#ABC2DE"/>
  <path d="M277.095 215.514C275.846 213.342 274.233 204.529 276.921 203.361C280.234 201.92 278.23 213.678 278.078 215.182C277.903 216.907 277.797 216.731 277.095 215.514Z" fill="#ABC2DE"/>
  <path d="M231.081 303.285C238.249 304.474 263.562 299.44 263.742 290.483C263.963 279.445 234.742 298.035 230.89 300.116C226.475 302.501 227.059 302.616 231.081 303.285Z" fill="#ABC2DE"/>
  <path d="M223.156 299.7C218.566 294.918 209.346 273.275 216.03 268.528C224.265 262.681 225.242 294.244 225.65 298.213C226.118 302.764 225.731 302.384 223.156 299.7Z" fill="#ABC2DE"/>
  <path d="M223.701 318.982C230.051 321.043 253.507 319.685 254.672 311.334C256.109 301.044 227.601 314.559 223.884 315.995C219.624 317.641 220.139 317.826 223.701 318.982Z" fill="#ABC2DE"/>
  <path d="M218.25 316.849C212.505 312.891 198.877 292.618 205.214 286.391C213.023 278.719 219.539 310.835 220.665 314.816C221.955 319.38 221.474 319.07 218.25 316.849Z" fill="#ABC2DE"/>
  <path d="M103.484 304.437C100.25 296.722 102.92 270.808 110.708 271.792C121.158 273.11 114.979 299.994 103.484 304.437Z" fill="#ABC2DE"/>
  <path d="M101.74 304.987C97.3 297.898 74.7167 295.255 71.0311 302.186C66.0853 311.485 91.484 311.82 101.74 304.987Z" fill="#ABC2DE"/>
  <path d="M89.05 281.354C83.1964 278.157 76.2704 259.682 82.1948 257.662C89.2778 255.247 94.0017 272.866 89.05 281.354Z" fill="#ABC2DE"/>
  <path d="M87.9852 282.351C83.5129 277.401 63.1615 275.551 63.3859 281.806C63.6043 287.883 82.6632 287.383 87.9852 282.351Z" fill="#ABC2DE"/>
  <path d="M98.3742 292.044C93.0095 287.105 89.6796 266.135 95.4138 264.542C103.16 262.388 105.869 284.349 98.3742 292.044Z" fill="#ABC2DE"/>
  <path d="M96.9153 292.687C91.2332 286.631 68.6414 284.468 69.0108 290.228C69.5824 299.164 90.0456 297.453 96.9153 292.687Z" fill="#ABC2DE"/>
  <path d="M39.9623 238.293C38.6894 234.991 41.6294 224.889 44.7315 226.076C48.8984 227.669 44.8782 236.556 39.9623 238.293Z" fill="#ABC2DE"/>
  <path d="M39.1927 238.377C38.8727 234.852 33.3408 228.475 30.9977 230.86C27.8754 234.04 34.0157 238.994 39.1927 238.377Z" fill="#ABC2DE"/>
  <path d="M45.297 248.72C42.996 245.305 44.7646 233.177 48.5339 234.029C53.5752 235.168 50.4219 245.474 45.297 248.72Z" fill="#ABC2DE"/>
  <path d="M44.4456 249.014C43.1684 245.099 33.4389 237.927 31.4058 241.675C28.9347 246.232 38.7345 251.057 44.4456 249.014Z" fill="#ABC2DE"/>
  <path d="M52.8322 257.057C49.5808 253.967 50.5227 239.392 54.6921 239.966C60.2019 240.724 57.517 252.397 52.8322 257.057Z" fill="#ABC2DE"/>
  <path d="M51.997 257.57C49.7147 253.708 38.6006 248.889 37.035 252.968C35.0121 258.241 46.4045 261.091 51.997 257.57Z" fill="#ABC2DE"/>
  <path d="M64.0692 265.041C59.4911 262.165 55.8498 246.87 60.7188 245.441C66.8701 243.636 68.4945 258.418 64.0692 265.041Z" fill="#ABC2DE"/>
  <path d="M63.2042 265.846C59.5885 261.827 45.8081 257.702 44.6342 262.345C42.9654 268.945 57.4351 271.337 63.2042 265.846Z" fill="#ABC2DE"/>
  <path d="M76.5314 272.17C71.1539 269.35 65.5094 254.393 70.2939 251.3C76.348 247.384 80.9064 264.368 76.5314 272.17Z" fill="#ABC2DE"/>
  <path d="M75.6331 273.147C71.2333 268.963 53.647 268.66 54.6657 273.562C55.8678 279.354 69.6541 279.8 75.6331 273.147Z" fill="#ABC2DE"/>
  <path d="M104.575 321.209C104.592 324.733 99.7231 324.376 100.449 320.682C105.998 264.179 43.8697 281.261 36.8379 228.436C36.5479 226.288 38.4624 226.077 38.7533 228.225C45.5155 279.027 110.394 261.95 104.575 321.209Z" fill="#ABC2DE"/>
  <path d="M38.0996 230.743C32.4525 227.374 32.67 218.501 35.9377 217.909C39.8648 217.199 41.5643 227.076 38.0996 230.743Z" fill="#ABC2DE"/>
  <path d="M104.788 334.259C105.534 334.477 105.577 333.448 104.884 331.961C104.191 330.473 103.024 329.09 102.278 328.872C94.6279 326.62 72.4541 312.659 50.1361 292.955C35.0155 279.604 19.9235 263.698 9.53219 247.236C8.60898 245.774 7.50993 244.876 7.07763 245.231C6.64507 245.587 7.04299 247.06 7.96611 248.523C19.2803 266.447 35.28 283.384 51.1702 297.414C74.0239 317.591 96.8547 331.924 104.788 334.259Z" fill="#BDD2E9"/>
  <path d="M67.0339 304.344C69.9219 298.321 71.8262 274.768 63.832 272.393C53.9805 269.468 63.2519 299.819 64.1426 303.728C65.1621 308.209 65.4138 307.724 67.0339 304.344Z" fill="#BDD2E9"/>
  <path d="M53.1939 293.704C55.6246 288.636 57.2269 268.813 50.4988 266.816C42.2094 264.354 50.0116 289.896 50.7607 293.186C51.619 296.957 51.8306 296.548 53.1939 293.704Z" fill="#BDD2E9"/>
  <path d="M41.492 283.25C43.636 278.777 45.0505 261.283 39.1134 259.521C31.7966 257.348 38.6825 279.889 39.3437 282.792C40.1013 286.121 40.289 285.76 41.492 283.25Z" fill="#BDD2E9"/>
  <path d="M32.0473 272.362C33.7161 268.882 34.8167 255.27 30.1965 253.898C24.5039 252.207 29.8615 269.748 30.376 272.007C30.9659 274.596 31.111 274.315 32.0473 272.362Z" fill="#BDD2E9"/>
  <path d="M23.0412 261.852C24.4243 258.968 25.336 247.686 21.5068 246.548C16.7881 245.147 21.2295 259.685 21.6554 261.557C22.1447 263.704 22.265 263.472 23.0412 261.852Z" fill="#BDD2E9"/>
  <path d="M14.9341 253.105C15.9363 251.015 16.5975 242.837 13.822 242.013C10.4024 240.997 13.6211 251.533 13.93 252.891C14.2843 254.447 14.3715 254.278 14.9341 253.105Z" fill="#BDD2E9"/>
  <path d="M8.737 247.17C8.25147 244.432 3.62569 235.691 0.780978 236.525C-2.72468 237.552 6.64308 246.36 7.76124 247.557C9.04295 248.932 9.00933 248.707 8.737 247.17Z" fill="#BDD2E9"/>
  <path d="M62.1829 309.489C56.2074 312.621 32.3767 315.656 29.57 307.921C26.1113 298.392 57.3992 305.997 61.4142 306.679C66.0162 307.46 65.535 307.731 62.1829 309.489Z" fill="#BDD2E9"/>
  <path d="M48.9749 298.036C43.8414 300.507 23.6223 302.438 21.4574 295.892C18.7906 287.824 45.0256 294.991 48.4008 295.664C52.269 296.434 51.8544 296.649 48.9749 298.036Z" fill="#BDD2E9"/>
  <path d="M36.8012 286.648C32.0423 288.422 13.8901 288.632 12.4613 282.788C10.701 275.589 33.5165 283.717 36.471 284.547C39.8564 285.496 39.4708 285.653 36.8012 286.648Z" fill="#BDD2E9"/>
  <path d="M28.1074 276.003C24.3682 277.311 10.2043 277.215 9.1772 272.662C7.91144 267.052 25.5893 273.683 27.8808 274.368C30.508 275.154 30.2053 275.27 28.1074 276.003Z" fill="#BDD2E9"/>
  <path d="M19.1616 264.824C16.0932 265.97 4.38822 266.117 3.46339 262.35C2.3233 257.707 17.0414 262.936 18.947 263.468C21.1306 264.079 20.8823 264.181 19.1616 264.824Z" fill="#BDD2E9"/>
  <path d="M11.5088 255.166C9.23558 255.896 0.699573 255.635 0.149366 252.896C-0.529157 249.52 10.0261 253.741 11.3972 254.185C12.9689 254.693 12.7846 254.758 11.5088 255.166Z" fill="#BDD2E9"/>
  <path d="M84.0853 315.619C86.6295 309.177 87.0066 284.581 78.695 282.62C68.4545 280.204 79.9278 311.155 81.095 315.161C82.4336 319.752 82.6571 319.232 84.0853 315.619Z" fill="#BDD2E9"/>
  <path d="M79.1601 322.285C73.7843 325.605 51.7692 329.863 48.685 322.685C44.885 313.84 74.4916 319.25 78.2736 319.664C82.6077 320.139 82.176 320.424 79.1601 322.285Z" fill="#BDD2E9"/>
  <path d="M97.236 325.638C100.428 320.134 103.859 298.004 96.3103 295.246C87.0083 291.846 93.895 321.118 94.4888 324.869C95.1696 329.169 95.4452 328.725 97.236 325.638Z" fill="#BDD2E9"/>
  <path d="M94.1579 330.29C89.3188 334.852 67.6987 343.492 63.165 336.34C57.5784 327.527 88.8111 327.885 92.7459 327.633C97.2575 327.345 96.8719 327.73 94.1579 330.29Z" fill="#BDD2E9"/>
  <path d="M159.248 353.217C229.014 353.217 285.916 345.919 285.916 336.971C285.916 328.023 229.014 320.724 159.248 320.724C89.4825 320.724 32.5806 328.023 32.5806 336.971C32.5806 345.919 89.4825 353.217 159.248 353.217Z" fill="#BDD2E9"/>
  <path d="M203.161 89.8907C202.597 93.2215 198.486 97.8669 198.201 100.879C197.266 110.775 205.407 119.978 218.716 118.963C237.512 117.531 245.045 117.642 247.138 106.286C248.831 97.1051 244.206 95.0498 243.975 88.8515C243.842 85.2725 244.507 82.7122 242.345 78.0198C236.113 64.4945 216.597 64.2232 211.536 70.395C210.206 72.0169 206.38 71.9273 203.994 76.9141C201.966 81.1517 204.026 84.7854 203.161 89.8907Z" fill="#213663"/>
  <path d="M221.104 181.163C216.18 186.095 205.213 187.474 199.585 186.445C200.885 171.582 202.727 165.367 221.104 181.163Z" fill="white"/>
  <path d="M217.337 333.817C211.835 337.387 197.637 339.223 190.776 337.893C186.934 337.149 186.678 331.604 191.72 329.472C200.419 325.791 208.535 323.22 217.781 321.212C218.588 325.667 219.778 332.232 217.337 333.817Z" fill="#285198"/>
  <path d="M208.31 323.521C194.08 327.449 217.436 332.398 218.089 323.896C217.235 282.207 220.222 284.091 218.561 253.447C217.854 240.404 200.45 241.225 200.939 255.368C201.909 283.363 210.93 308.497 208.31 323.521Z" fill="#AA7671"/>
  <path d="M243.666 339.682C239.937 343.078 224.33 345.868 217.416 344.855C213.543 344.288 213.323 338.856 218.261 336.494C226.782 332.419 234.481 329.384 243.627 326.952C244.637 331.365 245.817 337.721 243.666 339.682Z" fill="#285198"/>
  <path d="M244.021 328.56C242.467 299.239 244.656 282.076 243.256 259.275C242.454 246.206 223.948 246.77 225.091 260.886C227.072 285.386 234.283 314.358 234.511 329.602C221.079 334.247 241.906 337.62 244.021 328.56Z" fill="#AA7671"/>
  <path d="M251.444 263.987C249.103 235.788 254.23 199.088 239.934 177.193C229.226 172.616 216.333 172.843 207.714 173.07C205.562 173.127 203.675 173.184 202.157 173.166C192.367 200.648 196.829 239.815 194.939 265.187C202.697 266.664 242.196 273.417 251.444 263.987Z" fill="#E66C4D"/>
  <mask id="mask0_40_693" style="mask-type:luminance" maskUnits="userSpaceOnUse" x="194" y="172" width="58" height="97">
    <path d="M251.444 263.987C249.103 235.788 254.23 199.088 239.934 177.193C229.226 172.616 216.333 172.843 207.714 173.07C205.562 173.127 203.675 173.184 202.157 173.166C192.367 200.648 196.829 239.815 194.939 265.187C202.697 266.664 242.196 273.417 251.444 263.987Z" fill="white"/>
  </mask>
  <g mask="url(#mask0_40_693)">
    <path d="M203.909 266.686C202.715 266.509 201.596 266.335 200.566 266.169C200.869 265.606 201.464 265.223 202.147 265.223C203.024 265.223 203.754 265.854 203.909 266.686Z" fill="#E98268"/>
    <path d="M214.179 267.984C213.093 267.871 212.025 267.752 210.984 267.628C210.914 267.437 210.876 267.231 210.876 267.016C210.876 266.027 211.679 265.223 212.669 265.223C213.66 265.223 214.462 266.027 214.462 267.016C214.462 267.372 214.358 267.704 214.179 267.984Z" fill="#E98268"/>
    <path d="M223.702 268.736C223.301 268.715 222.896 268.693 222.494 268.669C221.85 268.397 221.398 267.759 221.398 267.016C221.398 266.027 222.201 265.223 223.191 265.223C224.182 265.223 224.984 266.027 224.984 267.016C224.984 267.829 224.444 268.515 223.702 268.736Z" fill="#E98268"/>
    <path d="M233.713 268.81C232.723 268.81 231.921 268.006 231.921 267.016C231.921 266.027 232.723 265.223 233.713 265.223C234.704 265.223 235.506 266.027 235.506 267.016C235.506 268.006 234.704 268.81 233.713 268.81Z" fill="#E98268"/>
    <path d="M242.671 267.893C242.525 267.633 242.442 267.334 242.442 267.016C242.442 266.026 243.245 265.223 244.235 265.223C245.226 265.223 246.028 266.026 246.028 267.016C246.028 267.02 246.028 267.025 246.028 267.03C244.99 267.369 243.866 267.654 242.671 267.893Z" fill="#E98268"/>
    <path d="M196.886 261.161C196.143 261.161 195.504 260.707 195.233 260.063C195.254 259.561 195.274 259.056 195.292 258.546C195.59 257.969 196.192 257.575 196.886 257.575C197.876 257.575 198.678 258.377 198.678 259.367C198.678 260.357 197.876 261.161 196.886 261.161Z" fill="#E98268"/>
    <path d="M207.409 261.161C206.417 261.161 205.615 260.357 205.615 259.367C205.615 258.377 206.417 257.575 207.409 257.575C208.398 257.575 209.2 258.377 209.2 259.367C209.2 260.357 208.398 261.161 207.409 261.161Z" fill="#E98268"/>
    <path d="M217.93 261.161C216.939 261.161 216.137 260.357 216.137 259.367C216.137 258.377 216.939 257.575 217.93 257.575C218.92 257.575 219.723 258.377 219.723 259.367C219.723 260.357 218.92 261.161 217.93 261.161Z" fill="#E98268"/>
    <path d="M228.452 261.161C227.461 261.161 226.659 260.357 226.659 259.367C226.659 258.377 227.461 257.575 228.452 257.575C229.442 257.575 230.245 258.377 230.245 259.367C230.245 260.357 229.442 261.161 228.452 261.161Z" fill="#E98268"/>
    <path d="M238.974 261.161C237.984 261.161 237.182 260.357 237.182 259.367C237.182 258.377 237.984 257.575 238.974 257.575C239.965 257.575 240.767 258.377 240.767 259.367C240.767 260.357 239.965 261.161 238.974 261.161Z" fill="#E98268"/>
    <path d="M249.496 261.16C248.506 261.16 247.704 260.357 247.704 259.367C247.704 258.377 248.506 257.575 249.496 257.575C250.184 257.575 250.781 257.961 251.081 258.528C251.108 259.029 251.135 259.53 251.164 260.027C250.901 260.689 250.254 261.16 249.496 261.16Z" fill="#E98268"/>
    <path d="M202.147 253.269C201.157 253.269 200.354 252.465 200.354 251.475C200.354 250.485 201.157 249.683 202.147 249.683C203.138 249.683 203.94 250.485 203.94 251.475C203.94 252.465 203.138 253.269 202.147 253.269Z" fill="#E98268"/>
    <path d="M212.669 253.269C211.679 253.269 210.876 252.465 210.876 251.475C210.876 250.485 211.679 249.683 212.669 249.683C213.66 249.683 214.462 250.485 214.462 251.475C214.462 252.465 213.66 253.269 212.669 253.269Z" fill="#E98268"/>
    <path d="M223.191 253.269C222.201 253.269 221.398 252.465 221.398 251.475C221.398 250.485 222.201 249.683 223.191 249.683C224.182 249.683 224.984 250.485 224.984 251.475C224.984 252.465 224.182 253.269 223.191 253.269Z" fill="#E98268"/>
    <path d="M233.713 253.269C232.723 253.269 231.921 252.465 231.921 251.475C231.921 250.485 232.723 249.683 233.713 249.683C234.704 249.683 235.506 250.485 235.506 251.475C235.506 252.465 234.704 253.269 233.713 253.269Z" fill="#E98268"/>
    <path d="M244.235 253.269C243.245 253.269 242.442 252.465 242.442 251.475C242.442 250.485 243.245 249.683 244.235 249.683C245.226 249.683 246.028 250.485 246.028 251.475C246.028 252.465 245.226 253.269 244.235 253.269Z" fill="#E98268"/>
    <path d="M196.885 245.619C196.32 245.619 195.816 245.357 195.487 244.947C195.487 244.594 195.487 244.236 195.487 243.881C195.487 243.489 195.487 243.098 195.487 242.704C195.815 242.295 196.32 242.034 196.885 242.034C197.876 242.034 198.678 242.836 198.678 243.826C198.678 244.816 197.876 245.619 196.885 245.619Z" fill="#E98268"/>
    <path d="M207.409 245.619C206.417 245.619 205.615 244.816 205.615 243.826C205.615 242.836 206.417 242.034 207.409 242.034C208.398 242.034 209.2 242.836 209.2 243.826C209.2 244.816 208.398 245.619 207.409 245.619Z" fill="#E98268"/>
    <path d="M217.93 245.619C216.939 245.619 216.137 244.816 216.137 243.826C216.137 242.836 216.939 242.034 217.93 242.034C218.92 242.034 219.723 242.836 219.723 243.826C219.723 244.816 218.92 245.619 217.93 245.619Z" fill="#E98268"/>
    <path d="M228.452 245.619C227.461 245.619 226.659 244.816 226.659 243.826C226.659 242.836 227.461 242.034 228.452 242.034C229.442 242.034 230.245 242.836 230.245 243.826C230.245 244.816 229.442 245.619 228.452 245.619Z" fill="#E98268"/>
    <path d="M238.974 245.619C237.984 245.619 237.182 244.816 237.182 243.826C237.182 242.836 237.984 242.034 238.974 242.034C239.965 242.034 240.767 242.836 240.767 243.826C240.767 244.816 239.965 245.619 238.974 245.619Z" fill="#E98268"/>
    <path d="M249.496 245.619C248.506 245.619 247.704 244.816 247.704 243.826C247.704 242.836 248.506 242.034 249.496 242.034C249.948 242.034 250.361 242.2 250.676 242.476C250.686 243.37 250.695 244.261 250.706 245.149C250.387 245.441 249.962 245.619 249.496 245.619Z" fill="#E98268"/>
    <path d="M202.147 237.727C201.157 237.727 200.354 236.924 200.354 235.933C200.354 234.944 201.157 234.142 202.147 234.142C203.138 234.142 203.94 234.944 203.94 235.933C203.94 236.924 203.138 237.727 202.147 237.727Z" fill="#E98268"/>
    <path d="M212.669 237.727C211.679 237.727 210.876 236.924 210.876 235.933C210.876 234.944 211.679 234.142 212.669 234.142C213.66 234.142 214.462 234.944 214.462 235.933C214.462 236.924 213.66 237.727 212.669 237.727Z" fill="#E98268"/>
    <path d="M223.191 237.727C222.201 237.727 221.398 236.924 221.398 235.933C221.398 234.944 222.201 234.142 223.191 234.142C224.182 234.142 224.984 234.944 224.984 235.933C224.984 236.924 224.182 237.727 223.191 237.727Z" fill="#E98268"/>
    <path d="M233.713 237.727C232.723 237.727 231.921 236.924 231.921 235.933C231.921 234.944 232.723 234.142 233.713 234.142C234.703 234.142 235.506 234.944 235.506 235.933C235.506 236.924 234.703 237.727 233.713 237.727Z" fill="#E98268"/>
    <path d="M244.235 237.727C243.245 237.727 242.442 236.924 242.442 235.933C242.442 234.944 243.245 234.142 244.235 234.142C245.226 234.142 246.028 234.944 246.028 235.933C246.028 236.924 245.226 237.727 244.235 237.727Z" fill="#E98268"/>
    <path d="M196.885 230.078C196.314 230.078 195.806 229.811 195.478 229.394C195.481 228.652 195.484 227.906 195.489 227.16C195.818 226.752 196.321 226.492 196.885 226.492C197.876 226.492 198.678 227.294 198.678 228.285C198.678 229.275 197.876 230.078 196.885 230.078Z" fill="#E98268"/>
    <path d="M207.409 230.078C206.417 230.078 205.615 229.275 205.615 228.285C205.615 227.294 206.417 226.492 207.409 226.492C208.398 226.492 209.2 227.294 209.2 228.285C209.2 229.275 208.398 230.078 207.409 230.078Z" fill="#E98268"/>
    <path d="M217.93 230.078C216.939 230.078 216.137 229.275 216.137 228.285C216.137 227.294 216.939 226.492 217.93 226.492C218.92 226.492 219.723 227.294 219.723 228.285C219.723 229.275 218.92 230.078 217.93 230.078Z" fill="#E98268"/>
    <path d="M228.452 230.077C227.461 230.077 226.659 229.275 226.659 228.285C226.659 227.294 227.461 226.492 228.452 226.492C229.442 226.492 230.245 227.294 230.245 228.285C230.245 229.275 229.442 230.077 228.452 230.077Z" fill="#E98268"/>
    <path d="M238.974 230.077C237.984 230.077 237.182 229.275 237.182 228.285C237.182 227.294 237.984 226.492 238.974 226.492C239.965 226.492 240.767 227.294 240.767 228.285C240.767 229.275 239.965 230.077 238.974 230.077Z" fill="#E98268"/>
    <path d="M249.496 230.077C248.506 230.077 247.704 229.275 247.704 228.285C247.704 227.294 248.506 226.492 249.496 226.492C249.861 226.492 250.198 226.6 250.481 226.786C250.504 227.771 250.523 228.756 250.54 229.743C250.246 229.953 249.886 230.077 249.496 230.077Z" fill="#E98268"/>
    <path d="M202.147 222.186C201.157 222.186 200.354 221.384 200.354 220.394C200.354 219.403 201.157 218.6 202.147 218.6C203.138 218.6 203.94 219.403 203.94 220.394C203.94 221.384 203.138 222.186 202.147 222.186Z" fill="#E98268"/>
    <path d="M212.669 222.186C211.679 222.186 210.876 221.384 210.876 220.394C210.876 219.403 211.679 218.6 212.669 218.6C213.66 218.6 214.462 219.403 214.462 220.394C214.462 221.384 213.66 222.186 212.669 222.186Z" fill="#E98268"/>
    <path d="M223.191 222.186C222.201 222.186 221.398 221.384 221.398 220.394C221.398 219.403 222.201 218.6 223.191 218.6C224.182 218.6 224.984 219.403 224.984 220.394C224.984 221.384 224.182 222.186 223.191 222.186Z" fill="#E98268"/>
    <path d="M233.713 222.186C232.723 222.186 231.92 221.384 231.92 220.393C231.92 219.403 232.723 218.6 233.713 218.6C234.703 218.6 235.506 219.403 235.506 220.393C235.506 221.384 234.703 222.186 233.713 222.186Z" fill="#E98268"/>
    <path d="M244.235 222.186C243.245 222.186 242.442 221.384 242.442 220.393C242.442 219.403 243.245 218.6 244.235 218.6C245.226 218.6 246.028 219.403 246.028 220.393C246.028 221.384 245.226 222.186 244.235 222.186Z" fill="#E98268"/>
    <path d="M196.885 214.536C196.456 214.536 196.063 214.385 195.754 214.133C195.789 213.178 195.83 212.217 195.875 211.263C196.162 211.066 196.51 210.951 196.885 210.951C197.876 210.951 198.678 211.754 198.678 212.743C198.678 213.734 197.876 214.536 196.885 214.536Z" fill="#E98268"/>
    <path d="M207.409 214.536C206.417 214.536 205.615 213.734 205.615 212.743C205.615 211.754 206.417 210.951 207.409 210.951C208.398 210.951 209.2 211.754 209.2 212.743C209.2 213.734 208.398 214.536 207.409 214.536Z" fill="#E98268"/>
    <path d="M217.93 214.536C216.939 214.536 216.137 213.734 216.137 212.743C216.137 211.754 216.939 210.951 217.93 210.951C218.92 210.951 219.723 211.754 219.723 212.743C219.723 213.734 218.92 214.536 217.93 214.536Z" fill="#E98268"/>
    <path d="M228.452 214.536C227.461 214.536 226.659 213.734 226.659 212.743C226.659 211.754 227.461 210.951 228.452 210.951C229.442 210.951 230.244 211.754 230.244 212.743C230.244 213.734 229.442 214.536 228.452 214.536Z" fill="#E98268"/>
    <path d="M238.974 214.536C237.984 214.536 237.181 213.734 237.181 212.743C237.181 211.754 237.984 210.951 238.974 210.951C239.965 210.951 240.767 211.754 240.767 212.743C240.767 213.734 239.965 214.536 238.974 214.536Z" fill="#E98268"/>
    <path d="M249.496 214.536C248.506 214.536 247.704 213.734 247.704 212.743C247.704 211.754 248.506 210.951 249.496 210.951C249.554 210.951 249.611 210.953 249.667 210.959C249.772 212.125 249.864 213.3 249.947 214.48C249.803 214.516 249.652 214.536 249.496 214.536Z" fill="#E98268"/>
    <path d="M202.147 206.644C201.157 206.644 200.354 205.842 200.354 204.852C200.354 203.862 201.157 203.058 202.147 203.058C203.138 203.058 203.94 203.862 203.94 204.852C203.94 205.842 203.138 206.644 202.147 206.644Z" fill="#E98268"/>
    <path d="M212.669 206.644C211.679 206.644 210.876 205.842 210.876 204.852C210.876 203.862 211.679 203.058 212.669 203.058C213.66 203.058 214.462 203.862 214.462 204.852C214.462 205.842 213.66 206.644 212.669 206.644Z" fill="#E98268"/>
    <path d="M223.191 206.644C222.2 206.644 221.398 205.842 221.398 204.852C221.398 203.862 222.2 203.058 223.191 203.058C224.182 203.058 224.984 203.862 224.984 204.852C224.984 205.842 224.182 206.644 223.191 206.644Z" fill="#E98268"/>
    <path d="M233.713 206.644C232.723 206.644 231.92 205.842 231.92 204.852C231.92 203.862 232.723 203.058 233.713 203.058C234.703 203.058 235.506 203.862 235.506 204.852C235.506 205.842 234.703 206.644 233.713 206.644Z" fill="#E98268"/>
    <path d="M244.235 206.644C243.245 206.644 242.442 205.842 242.442 204.852C242.442 203.862 243.245 203.058 244.235 203.058C245.226 203.058 246.028 203.862 246.028 204.852C246.028 205.842 245.226 206.644 244.235 206.644Z" fill="#E98268"/>
    <path d="M196.885 198.995C196.848 198.995 196.812 198.994 196.775 198.991C196.899 197.797 197.034 196.614 197.182 195.434C198.032 195.574 198.678 196.313 198.678 197.202C198.678 198.193 197.876 198.995 196.885 198.995Z" fill="#E98268"/>
    <path d="M207.409 198.995C206.417 198.995 205.615 198.193 205.615 197.202C205.615 196.212 206.417 195.409 207.409 195.409C208.399 195.409 209.2 196.212 209.2 197.202C209.2 198.193 208.399 198.995 207.409 198.995Z" fill="#E98268"/>
    <path d="M217.93 198.995C216.939 198.995 216.137 198.193 216.137 197.202C216.137 196.212 216.939 195.409 217.93 195.409C218.92 195.409 219.723 196.212 219.723 197.202C219.723 198.193 218.92 198.995 217.93 198.995Z" fill="#E98268"/>
    <path d="M228.452 198.995C227.461 198.995 226.659 198.193 226.659 197.202C226.659 196.212 227.461 195.409 228.452 195.409C229.442 195.409 230.244 196.212 230.244 197.202C230.244 198.193 229.442 198.995 228.452 198.995Z" fill="#E98268"/>
    <path d="M238.974 198.995C237.984 198.995 237.181 198.193 237.181 197.202C237.181 196.212 237.984 195.409 238.974 195.409C239.965 195.409 240.767 196.212 240.767 197.202C240.767 198.193 239.965 198.995 238.974 198.995Z" fill="#E98268"/>
    <path d="M247.825 197.853C247.754 197.67 247.712 197.474 247.705 197.269C247.746 197.463 247.786 197.658 247.825 197.853Z" fill="#E98268"/>
    <path d="M202.147 191.103C201.157 191.103 200.354 190.3 200.354 189.31C200.354 188.321 201.157 187.517 202.147 187.517C203.138 187.517 203.94 188.321 203.94 189.31C203.94 190.3 203.138 191.103 202.147 191.103Z" fill="#E98268"/>
    <path d="M212.669 191.103C211.679 191.103 210.876 190.3 210.876 189.31C210.876 188.321 211.679 187.517 212.669 187.517C213.66 187.517 214.462 188.321 214.462 189.31C214.462 190.3 213.66 191.103 212.669 191.103Z" fill="#E98268"/>
    <path d="M223.191 191.103C222.2 191.103 221.398 190.3 221.398 189.31C221.398 188.321 222.2 187.517 223.191 187.517C224.182 187.517 224.984 188.321 224.984 189.31C224.984 190.3 224.182 191.103 223.191 191.103Z" fill="#E98268"/>
    <path d="M233.713 191.103C232.723 191.103 231.92 190.3 231.92 189.31C231.92 188.321 232.723 187.517 233.713 187.517C234.703 187.517 235.506 188.321 235.506 189.31C235.506 190.3 234.703 191.103 233.713 191.103Z" fill="#E98268"/>
    <path d="M244.235 191.103C243.245 191.103 242.442 190.3 242.442 189.31C242.442 188.321 243.245 187.517 244.235 187.517C244.533 187.517 244.812 187.589 245.059 187.717C245.337 188.496 245.602 189.288 245.852 190.088C245.561 190.688 244.947 191.103 244.235 191.103Z" fill="#E98268"/>
  </g>
  <path d="M126.391 111.614C131.523 124.203 133.441 133.377 135.058 144.907C136.237 153.319 128.174 154.754 123.794 148.735C116.511 138.725 112.79 129.134 109.184 118.115C104.893 105.004 121.471 99.5435 126.391 111.614Z" fill="#E66C4D"/>
  <path d="M121.205 119.659C124.712 126.908 124.829 133.572 124.596 139.417C124.362 145.262 113.957 141.756 113.957 141.756C113.957 141.756 114.775 125.622 121.205 119.659Z" fill="#E66C4D"/>
  <path d="M200.917 117.884C193.667 124.232 181.182 135.661 175.161 143.189C170.341 149.216 177.706 154.434 184.138 150.165C195.097 142.889 204.905 137.885 214.575 126.899C222.854 117.492 209.723 110.176 200.917 117.884Z" fill="#285198"/>
  <path d="M196.185 142.404C201.285 138.765 205.229 135.951 209.56 131.974C208.389 127.373 207.048 124.354 204.702 120.834C199.528 130.022 197.387 134.311 196.185 142.404Z" fill="#213663"/>
  <path d="M197.391 188.115C191.107 186.234 204.933 162.37 203.074 156.407C201.988 152.924 197.253 146.76 197.89 141.035C198.347 136.925 200.449 128.799 205.097 115.343C215.778 112.692 226.616 111.252 243.751 117.471C247.409 137.218 239.92 147.885 240.317 163.435C240.485 170.037 249.609 181.962 245.288 185.571C235.179 194.013 210.404 192.01 197.391 188.115Z" fill="#285198"/>
  <path d="M213.347 113.666C217.392 112.721 220.993 112.227 227.758 113.313C226.061 117.945 219.191 124.544 215.032 126.869C213.963 123.493 213.151 117.68 213.347 113.666Z" fill="#AA7671"/>
  <path d="M214.691 100.592L226.191 100.635L226.14 114.435C226.119 120.17 214.62 119.787 214.639 114.392L214.691 100.592Z" fill="#AA7671"/>
  <path d="M242.689 142.159C244.719 149.461 249.674 155.317 253.926 160.712C258.702 166.772 265.398 167.058 263.777 159.511C260.894 146.088 253.297 124.336 245.499 118.432C238.952 113.474 239.385 130.268 242.689 142.159Z" fill="#285198"/>
  <path d="M214.668 106.683L226.169 106.726L226.143 113.737C223.209 115.569 216.985 115.096 214.657 109.823L214.668 106.683Z" fill="#825E5B"/>
  <path d="M223.239 71.7806C201.188 68.5838 201.013 108.89 217.38 110.136C234.878 111.469 247.206 75.2555 223.239 71.7806Z" fill="#AA7671"/>
  <path d="M211.061 88.222C211.688 88.2868 212.144 88.8627 212.077 89.5102C212.011 90.1578 211.449 90.6296 210.821 90.5656C210.193 90.5008 209.738 89.9249 209.804 89.2773C209.87 88.6306 210.432 88.158 211.061 88.222Z" fill="#182541"/>
  <path d="M222.101 89.4557C222.728 89.5197 223.185 90.0964 223.118 90.744C223.051 91.3907 222.488 91.8633 221.861 91.7985C221.233 91.7345 220.778 91.1578 220.843 90.5111C220.911 89.8635 221.473 89.3917 222.101 89.4557Z" fill="#182541"/>
  <path d="M215.97 97.3073C213.386 96.2954 214.282 94.6155 215.336 92.3922C213.331 94.0004 212.039 96.687 215.97 97.3073Z" fill="#825E5B"/>
  <path d="M211.328 99.0665C213.586 99.1441 217.03 99.4521 221.584 99.9239C219.258 105.748 212.532 104.509 211.328 99.0665Z" fill="#825E5B"/>
  <path d="M231.912 85.411C231.745 90.7296 234.073 94.5535 235.736 94.8862C237.398 95.2181 239.226 85.9092 231.912 85.411Z" fill="#213663"/>
  <path d="M237.644 91.3728C236.703 91.0264 235.338 92.3795 234.596 94.3947C233.853 96.4107 234.013 98.3261 234.954 98.6733C235.894 99.0197 237.259 97.6666 238.001 95.6505C238.745 93.6345 238.584 91.7192 237.644 91.3728Z" fill="#AA7671"/>
  <path d="M221.201 86.6513C220.388 86.6812 219.994 85.6454 221.017 85.4424C222.493 85.1489 225.344 85.9355 226.154 86.839C226.668 87.4123 226.28 87.9217 225.579 87.5992C224.383 87.0463 221.764 86.6317 221.201 86.6513Z" fill="#213663"/>
  <path d="M213.654 85.8707C214.37 86.1096 214.981 85.2018 214.12 84.7479C212.878 84.0918 210.481 84.0986 209.196 84.8272C208.56 85.1881 208.82 85.8587 209.517 85.683C210.497 85.4356 212.955 85.6369 213.654 85.8707Z" fill="#213663"/>
  <path d="M100.407 333.484C106.264 337.285 121.377 339.239 128.681 337.824C132.771 337.031 133.044 331.129 127.678 328.858C118.418 324.94 109.778 322.204 99.9355 320.066C99.0764 324.808 97.8094 331.798 100.407 333.484Z" fill="#213663"/>
  <path d="M118.386 325.458C114.773 327.224 103.259 327.788 98.4817 324.363C96.5117 284.017 98.3537 272.215 99.5635 250.631C100.3 237.48 119.248 239.244 118.726 253.37C117.685 281.551 119.398 315.231 118.386 325.458Z" fill="#5684CC"/>
  <path d="M97.7522 170.782C99.3127 180.768 99.938 191.946 97.8145 202.65C96.3428 220.447 91.8031 241.173 90.3331 258.97C89.6002 267.842 70.5337 267.993 70.5251 257.189C70.5004 229.011 65.9257 201.374 71.4832 169.64C79.1737 169.64 90.0618 170.782 97.7522 170.782Z" fill="#5684CC"/>
  <path d="M89.5047 180.885C89.0406 181.597 88.2821 182.492 87.3761 183.434C86.0153 184.85 84.3192 186.385 82.734 187.716C81.1505 189.046 79.6669 190.179 78.7617 190.781C78.3854 191.032 78.283 191.541 78.5339 191.918C78.7847 192.294 79.2932 192.395 79.6694 192.145C80.9927 191.262 83.2297 189.507 85.4283 187.553C86.5255 186.578 87.6098 185.555 88.5569 184.569C89.5047 183.581 90.3144 182.638 90.8758 181.782C91.1232 181.403 91.0165 180.896 90.6386 180.648C90.2598 180.401 89.7521 180.507 89.5047 180.885Z" fill="#6693D4"/>
  <path d="M94.9718 170.782C93.4122 180.768 93.1502 195.213 95.2729 205.917C96.4494 223.809 98.7163 237.708 99.8928 255.599C100.477 264.481 118.505 265.485 118.543 254.681C118.641 226.497 121.062 202.297 119.059 170.513C111.03 170.603 103.001 170.692 94.9718 170.782Z" fill="#5684CC"/>
  <mask id="mask1_40_693" style="mask-type:luminance" maskUnits="userSpaceOnUse" x="93" y="170" width="27" height="93">
    <path d="M94.9718 170.782C93.4122 180.768 93.1502 195.213 95.2729 205.917C96.4494 223.809 98.7163 237.708 99.8928 255.599C100.477 264.481 118.505 265.485 118.543 254.681C118.641 226.497 121.062 202.297 119.059 170.513C111.03 170.603 103.001 170.692 94.9718 170.782Z" fill="white"/>
  </mask>
  <g mask="url(#mask1_40_693)">
    <path d="M111.333 179.249C111.894 180.105 112.703 181.048 113.651 182.036C115.072 183.514 116.802 185.077 118.421 186.438C120.043 187.798 121.545 188.948 122.538 189.611C122.915 189.862 123.423 189.761 123.674 189.384C123.925 189.008 123.823 188.5 123.447 188.249C122.236 187.443 120.011 185.702 117.868 183.796C116.796 182.842 115.739 181.845 114.833 180.901C113.926 179.959 113.168 179.064 112.704 178.352C112.457 177.973 111.949 177.868 111.57 178.115C111.191 178.362 111.086 178.87 111.333 179.249Z" fill="#6693D4"/>
  </g>
  <path d="M102.441 180.675C102.352 182.67 102.44 185.809 102.331 188.472C102.277 189.798 102.171 191.006 101.988 191.833C101.899 192.244 101.786 192.558 101.696 192.711C101.654 192.788 101.621 192.817 101.621 192.818L101.757 192.976L101.727 192.776L101.621 192.818L101.757 192.976L101.727 192.776C100.879 192.904 99.9244 192.991 99.1873 193.045C98.8187 193.072 98.5039 193.091 98.282 193.103C98.0602 193.115 97.9348 193.12 97.9348 193.121C97.4826 193.14 97.132 193.521 97.1507 193.974C97.1695 194.425 97.5509 194.776 98.0031 194.758C98.0184 194.756 100.143 194.67 101.97 194.396C102.248 194.356 102.499 194.224 102.684 194.063C103.034 193.756 103.213 193.386 103.365 192.979C103.619 192.264 103.756 191.377 103.852 190.355C103.992 188.828 104.02 187.017 104.028 185.286C104.037 183.557 104.025 181.906 104.078 180.75C104.098 180.298 103.748 179.915 103.296 179.895C102.845 179.874 102.462 180.223 102.441 180.675Z" fill="#6693D4"/>
  <path d="M95.8233 216.508C97.0416 223.816 98.3264 231.119 99.3733 237.435C100.42 243.748 101.23 249.086 101.495 252.411C101.528 252.834 101.545 253.422 101.545 254.144C101.546 258.04 101.062 265.783 100.576 275C100.092 284.222 99.6053 294.936 99.6053 304.856C99.6053 310.379 99.7555 315.656 100.143 320.3C100.18 320.751 100.576 321.086 101.027 321.048C101.477 321.01 101.812 320.615 101.775 320.164C101.394 315.586 101.243 310.349 101.243 304.856C101.243 294.988 101.727 284.297 102.213 275.086C102.697 265.869 103.183 258.15 103.184 254.144C103.184 253.396 103.167 252.776 103.127 252.281C102.852 248.843 102.039 243.498 100.989 237.167C99.9398 230.839 98.6558 223.537 97.4391 216.24C97.3649 215.793 96.9426 215.491 96.4964 215.566C96.0502 215.641 95.749 216.062 95.8233 216.508Z" fill="#6693D4"/>
  <path d="M97.2916 228.064C96.8608 224.118 96.3804 221.003 95.9556 218.41C95.9556 218.409 95.9556 218.408 95.9564 218.407C95.9871 218.228 96.0179 218.045 96.0494 217.859C96.203 218.774 96.3574 219.689 96.5118 220.599C96.7635 223.119 97.0263 225.597 97.2916 228.064Z" fill="#8199B9"/>
  <path d="M95.9556 218.41C95.9556 218.409 95.9556 218.408 95.9564 218.408C95.9556 218.408 95.9556 218.409 95.9556 218.411" fill="#3F69B4"/>
  <path d="M97.3181 228.306C97.3095 228.225 97.3002 228.145 97.2916 228.064C97.0263 225.597 96.7635 223.119 96.5118 220.599C96.8659 222.689 97.2208 224.764 97.5698 226.8C97.487 227.301 97.4025 227.802 97.3181 228.306ZM98.353 221.659C98.0475 219.862 97.7412 218.05 97.4392 216.239C97.3727 215.838 97.0254 215.554 96.6321 215.554C96.5878 215.554 96.5426 215.559 96.4965 215.566C96.4734 215.57 96.4496 215.575 96.4274 215.581C97.3275 210.037 98.4144 202.559 99.2206 194.685C99.2462 194.683 99.2718 194.682 99.2974 194.679C99.8801 206.61 99.3341 214.502 98.353 221.659Z" fill="#3F69B4"/>
  <path d="M99.2205 194.685C99.2375 194.516 99.2546 194.347 99.2717 194.178C99.2802 194.346 99.2887 194.513 99.2972 194.679C99.2717 194.682 99.2461 194.684 99.2205 194.685Z" fill="#476FB5"/>
  <path d="M97.5695 226.8C97.2206 224.764 96.8657 222.689 96.5116 220.599C96.3572 219.689 96.2028 218.774 96.0492 217.859C96.1703 217.143 96.2966 216.382 96.4271 215.581C96.4493 215.575 96.4732 215.57 96.4963 215.566C96.5423 215.559 96.5875 215.554 96.6319 215.554C97.0252 215.554 97.3724 215.839 97.439 216.24C97.741 218.05 98.0473 219.862 98.3527 221.659C98.1139 223.4 97.8494 225.098 97.5695 226.8Z" fill="#476FB5"/>
  <path d="M68.8546 338.247C74.448 342.425 89.3997 345.37 96.7805 344.44C100.914 343.918 101.575 338.047 96.3701 335.427C87.388 330.908 78.9476 327.608 69.2667 324.827C68.097 329.502 66.3719 336.393 68.8546 338.247Z" fill="#213663"/>
  <path d="M86.4615 330.503C82.4533 333.219 74.3619 333.505 66.7286 330.076C65.4719 297.957 69.399 272.75 71.4799 251.166C72.7485 238.014 92.1845 237.997 91.1052 252.238C88.9527 280.645 87.8846 320.277 86.4615 330.503Z" fill="#5684CC"/>
  <path d="M77.1627 177.287C75.3899 187.527 74.3806 206.048 73.669 223.136C73.3133 231.676 73.0351 239.85 72.7775 246.427C72.5207 252.997 72.2801 257.999 72.0182 260.088C71.7579 262.173 71.444 266.442 71.1147 271.897C70.1267 288.253 69.0133 315.116 69.0133 323.878C69.0133 324.599 69.021 325.199 69.0372 325.669C69.0526 326.121 69.4314 326.475 69.8835 326.459C70.3357 326.444 70.6898 326.065 70.6736 325.613C70.6582 325.174 70.6514 324.587 70.6514 323.878C70.6505 318.103 71.1454 304.212 71.7673 290.771C72.0779 284.049 72.4208 277.435 72.7493 271.996C73.0778 266.559 73.3935 262.282 73.6434 260.291C73.9216 258.052 74.1545 253.082 74.4138 246.491C74.8003 236.617 75.2346 223.166 75.9018 210.288C76.5672 197.414 77.4699 185.097 78.7761 177.567C78.8537 177.122 78.5551 176.698 78.1098 176.62C77.6636 176.543 77.2395 176.842 77.1627 177.287Z" fill="#6693D4"/>
  <path d="M121.719 140.144C124.525 140.261 128.672 139.995 130.075 141.28C131.478 142.566 127.947 136.581 121.725 137.154C120.44 137.855 120.199 139.209 121.719 140.144Z" fill="#D46144"/>
  <path d="M123.473 106.855C124.585 123.96 122.529 137.502 120.912 149.293C119.604 158.834 124.018 166.409 121.471 180.167C104.445 186.759 85.6587 187.14 68.9725 178.934C65.9608 174.559 73.8825 163.487 73.7229 152.975C73.5284 140.166 64.4524 124.966 65.6682 107.705C83.4866 96.3013 116.699 100.371 123.473 106.855Z" fill="#F68A6D"/>
  <path d="M81.2033 145.028C76.6201 143.408 72.7468 141.508 73.431 140.52C74.4838 139 81.1487 142.798 84.7209 142.801C83.5265 142.159 81.5548 140.966 81.8731 140.179C82.9728 137.46 95.7489 146.782 94.3583 150.484C92.0377 156.66 71.9286 150.787 72.6921 148.265C72.9617 147.374 74.756 148.897 79.0585 149.322C74.872 148.255 70.2231 146.849 70.8937 145.158C71.2656 144.22 76.8906 146.817 80.2717 147.303C76.6909 145.92 70.206 143.674 70.8894 142.585C71.7793 141.165 77.3786 144.448 81.2033 145.028Z" fill="#F6B4AD"/>
  <path d="M95.6909 73.3821H95.6918C100.003 73.2405 103.644 76.5866 103.782 80.8175L104.496 102.649C104.614 106.25 106.181 112.817 100.877 113.348C93.0469 114.132 88.9543 107.393 88.8161 103.162L88.1029 81.3302C87.9638 77.0994 91.379 73.5229 95.6909 73.3821Z" fill="#F6B4AD"/>
  <path d="M104.369 98.7423L88.4365 91.5382L88.817 103.162C93.338 105.458 101.275 104.232 104.369 98.7423Z" fill="#CD9690"/>
  <path d="M89.7965 55.2754C103.905 51.3218 110.189 64.0408 111.769 77.0081C113.038 87.421 112.626 97.095 105.817 99.8499C97.4835 103.223 84.8131 97.7255 81.7127 90.2705C76.3386 77.3493 74.5606 59.5446 89.7965 55.2754Z" fill="#F6B4AD"/>
  <path d="M101.915 72.1697C100.786 72.4819 100.126 71.0154 101.196 70.5401C103.218 69.6452 105.935 69.3875 107.821 70.7347C108.772 71.4121 108.219 72.4436 107.119 72.0545C105.737 71.5674 103.312 71.7823 101.915 72.1697Z" fill="#1E2C41"/>
  <path d="M99.3622 87.4866C102.763 86.5771 101.87 84.3324 100.854 81.3805C103.157 83.6917 104.405 87.2605 99.3622 87.4866Z" fill="#CD9690"/>
  <path d="M107.508 86.9968C105 88.6068 99.7059 90.2918 94.447 90.1433C97.6191 92.202 106.315 90.0793 107.508 86.9968Z" fill="#CD9690"/>
  <path d="M94.2048 72.2934C95.3754 72.313 95.3404 73.9272 94.1784 74.0731C93.1853 74.1977 90.9739 74.8785 89.2087 76.044C88.2344 76.6864 87.5672 76.0465 88.1781 75.0517C89.3913 73.0775 91.9943 72.2559 94.2048 72.2934Z" fill="#1E2C41"/>
  <path d="M105.315 90.849C103.515 91.5017 100.891 92.3207 98.8741 92.6535C100.123 93.801 104.878 92.6569 105.315 90.849Z" fill="#CD9690"/>
  <path d="M93.5479 79.1093C94.2065 78.9251 94.895 79.3252 95.0853 80.0043C95.2755 80.6834 94.8959 81.3839 94.2372 81.5682C93.5786 81.7525 92.8901 81.3523 92.6998 80.6732C92.5096 79.9941 92.8892 79.2945 93.5479 79.1093Z" fill="#182541"/>
  <path d="M104.922 76.2171C105.581 76.0319 106.269 76.4329 106.46 77.112C106.65 77.7912 106.27 78.4908 105.612 78.6759C104.953 78.8602 104.264 78.4592 104.074 77.7809C103.884 77.101 104.264 76.4014 104.922 76.2171Z" fill="#182541"/>
  <path d="M96.9528 147.024C99.874 154.994 92.0104 158.926 86.2814 154.179C75.5298 145.27 69.1438 136.197 63.7894 125.676C54.4574 107.34 71.4935 96.71 84.0623 120.814C89.5456 131.327 91.7408 132.804 96.9528 147.024Z" fill="#E66C4D"/>
  <path d="M89.8101 130.878C87.5893 133.099 84.8472 139.885 85.1979 146.315C89.2897 143.158 92.2254 135.071 92.2254 135.071L89.8101 130.878Z" fill="#D46144"/>
  <path d="M223.61 97.6631C223.197 97.6631 222.761 97.617 222.314 97.5181C220.331 97.0829 218.903 95.7963 219.126 94.6446C219.298 93.7522 220.41 93.2027 221.825 93.2027C222.236 93.2027 222.673 93.2488 223.119 93.3469C225.103 93.7829 226.53 95.0695 226.308 96.2212C226.135 97.1137 225.023 97.6631 223.61 97.6631Z" fill="#AF7170"/>
  <path d="M209.391 96.4874C207.645 96.4874 206.266 95.636 206.264 94.5183C206.261 93.3452 207.77 92.324 209.636 92.2361C209.722 92.2318 209.807 92.2301 209.891 92.2301C211.637 92.2301 213.016 93.0816 213.018 94.2001C213.022 95.3723 211.512 96.3936 209.647 96.4814C209.56 96.4849 209.475 96.4874 209.391 96.4874Z" fill="#AF7170"/>
  <path d="M106.813 83.7479C105.167 83.7479 103.833 83.0731 103.682 82.0825C103.509 80.9384 104.978 79.808 106.963 79.5563C107.23 79.5231 107.492 79.5068 107.747 79.5068C109.392 79.5068 110.725 80.1817 110.876 81.1722C111.051 82.3155 109.581 83.4468 107.595 83.6985C107.329 83.7317 107.067 83.7479 106.813 83.7479Z" fill="#F5A8A6"/>
  <path d="M91.7272 88.0999C90.6095 88.0999 89.7316 87.6938 89.4996 86.9617C89.1498 85.8595 90.4005 84.4347 92.2937 83.782C92.9302 83.5619 93.5589 83.4569 94.1263 83.4569C95.2439 83.4569 96.1218 83.8639 96.3539 84.5951C96.7037 85.6974 95.4521 87.1213 93.5606 87.7756C92.9233 87.9949 92.2945 88.0999 91.7272 88.0999Z" fill="#F5A8A6"/>
  <path d="M160.485 120.009C160.241 121.668 162.329 123.348 163.027 125.116C166.98 135.131 169.871 141.788 174.053 149.003C177.848 155.554 186.583 149.62 184.111 142.456C181.06 133.611 175.912 127.382 171.731 119.498C170.98 118.084 171.148 115.418 169.724 114.936C166.527 113.852 160.899 117.199 160.485 120.009Z" fill="#285198"/>
  <path d="M273.298 130.339C275.387 132.91 272.337 138.656 271.615 142.398C270.288 149.276 269.227 155.441 265.926 161.98C262.435 168.892 253.131 164.522 255.058 157.048C256.727 150.576 258.805 145.135 260.796 139.478C262.092 135.793 261.287 128.772 265.706 127.553C268.141 126.881 271.186 127.74 273.298 130.339Z" fill="#285198"/>
  <path d="M212.76 99.2943C214.581 99.4044 216.929 99.6125 219.784 99.8983C219.572 101.077 212.515 100.289 212.76 99.2943Z" fill="white"/>
  <path d="M88.9032 141.408C97.6925 141.154 124.006 139.043 129.543 140.823C137.629 143.422 136.15 153.349 127.724 154.423C122.86 155.044 97.8153 154.997 87.9195 153.41C87.1576 149.176 87.5867 144.709 88.9032 141.408Z" fill="#E66C4D"/>
  <path d="M105.347 140.501C104.088 145.12 100.679 151.13 96.5851 154.174C94.349 143.72 95.3079 140.35 105.347 140.501Z" fill="#D46144"/>
  <path d="M119.016 325.331C115.403 327.097 102.909 328.065 98.132 324.639C97.9887 321.694 97.8658 318.904 97.76 316.248C103.051 318.893 115.141 318.095 119.339 316.618C119.311 320.304 119.217 323.287 119.016 325.331Z" fill="#6693D4"/>
  <path d="M87.1013 331.103C83.4881 332.869 70.9944 333.837 66.2175 330.411C66.0733 327.465 66.1544 324.744 66.0494 322.088C71.3408 324.732 83.2262 323.867 87.4246 322.389C87.3956 326.076 87.3027 329.059 87.1013 331.103Z" fill="#6693D4"/>
  <path d="M181.469 136.158C184.293 139.514 185.673 143.252 186.496 146.318C187.26 141.832 185.365 138.152 181.469 136.158Z" fill="#213663"/>
  <path d="M259.104 144.233C256.434 147.714 255.741 153.948 255.058 157.048C253.347 152.6 255.303 146.401 259.104 144.233Z" fill="#213663"/>
  <path d="M240.846 134.818C241.052 136.515 241.98 140.262 243.016 143.248C242.818 144.252 242.714 144.741 242.509 145.731C240.655 142.887 240.268 138.413 240.846 134.818Z" fill="#213663"/>
  <path d="M211.632 71.6132C209.637 79.7584 229.086 92.2266 239.724 91.2284C250.363 90.231 235.736 64.7981 211.632 71.6132Z" fill="#213663"/>
  <path d="M206.171 86.9833C208.071 80.4787 211.762 76.8366 216.889 75.1473C216.567 73.1714 214.894 70.8729 214.894 70.8729C214.894 70.8729 206.073 74.9059 206.171 86.9833Z" fill="#213663"/>
  <path d="M79.672 61.7124C92.321 73.3086 99.9364 62.854 106.711 65.3606C110.889 66.9056 110.976 73.4315 111.837 77.281C112.764 75.3273 114.365 66.9594 111.964 64.5313C109.331 61.8685 114.349 52.8625 102.943 54.0271C98.2557 54.5057 84.6775 46.0756 79.672 61.7124Z" fill="#285198"/>
  <path d="M85.0272 58.2271C88.8835 65.392 85.8761 68.7483 82.5683 71.5936C79.3579 74.3545 86.0825 84.3382 79.729 85.4158C77.3188 81.8854 70.4474 69.1152 75.1484 66.4917C77.6012 65.1224 74.1681 56.6428 85.0272 58.2271Z" fill="#285198"/>
  <path d="M108.422 64.5492C102.645 57.3544 89.2309 69.8226 82.8381 59.2741C90.2351 47.3946 102.342 59.3082 105.772 55.9553C102.668 60.454 89.3845 54.6192 85.0444 59.054C87.9623 62.8113 106.244 55.1029 108.422 64.5492Z" fill="#3A65B3"/>
  <path d="M83.0718 59.0404C76.4316 59.6206 79.5636 64.743 76.9828 66.666C79.5525 66.1959 81.5233 59.5054 84.5973 60.356C84.7159 59.7673 84.6493 58.9005 83.0718 59.0404Z" fill="#3A65B3"/>
  <path d="M77.5782 80.9829C78.5909 80.4701 80.3024 81.8147 81.4013 83.9852C82.4993 86.1565 82.5684 88.3312 81.5548 88.844C80.5421 89.3567 78.8307 88.0121 77.7326 85.8408C76.6346 83.6712 76.5655 81.4956 77.5782 80.9829Z" fill="#F6B4AD"/>
  <path d="M240.65 88.0709C229.688 90.7012 214.452 77.1085 213.136 72.3948C213.943 73.3401 228.723 83.5542 240.65 88.0709Z" fill="#25417B"/>
  <path d="M204.038 83.3572C203.061 78.2024 206.66 73.6046 209.957 72.8334C207.879 74.5525 204.582 79.5922 204.038 83.3572Z" fill="#25417B"/>
  <path d="M111.492 89.4172C111.833 87.2434 111.791 86.3185 110.646 86.4056C108.68 86.3928 107.098 94.3434 104.916 97.4558C101.426 97.2442 99.8706 94.0832 99.0311 94.4176C96.3445 95.4593 102.341 109.206 105.038 111.103C110.966 115.27 119.536 92.3487 117.002 92.4519C116.367 92.4784 116.204 94.5712 114.403 97.9096C113.56 97.1418 112.805 97.6929 111.692 97.2356C112.678 93.271 114.532 87.1495 113.166 87.0787C112.359 87.0616 111.874 87.699 111.492 89.4172Z" fill="#CD9690"/>
  <path d="M109.475 96.4201C110.866 91.4393 112.143 86.9048 110.865 86.8962C108.897 86.8834 107.425 96.142 105.242 99.2543C101.753 99.0427 100.143 94.7368 99.3033 95.0721C96.8351 96.0584 103.484 109.316 106.182 111.212C112.111 115.38 119.691 92.6167 117.029 91.7397C116.087 91.4291 116.785 93.1713 114.525 97.1786C116.156 92.8803 117.211 87.6897 115.328 87.2401C114.284 86.9909 113.67 93.7591 112.025 97.0003C113.011 93.0365 115.019 86.0157 113.653 85.9458C111.873 85.8519 111.308 92.7353 109.475 96.4201Z" fill="#F6B4AD"/>
  <path d="M101.776 108.579C98.3451 116.676 85.5169 141.963 85.1629 147.769C84.645 156.247 95.0246 158.634 99.0874 151.175C101.433 146.869 111.197 121.82 113.314 112.024C109.647 109.776 105.329 108.552 101.776 108.579Z" fill="#E66C4D"/>
  <path d="M214.657 109.822C213.566 111.674 212.788 112.407 211.697 114.258C211.598 120.907 213.343 124.48 215.032 126.869C214.619 123.322 214.783 115.982 214.657 109.822Z" fill="#F7967C"/>
  <path d="M226.265 108.858C226.964 110.645 227.813 112.462 228.146 113.966C225.969 119.262 221.005 125.411 215.032 126.869C219.969 123.421 224.447 115.906 226.265 108.858Z" fill="#F7967C"/>
  <path d="M214.657 109.822C212.237 112.13 210.734 114.067 208.782 117.38C210.8 116.643 213.101 115.452 214.716 115.672C214.844 113.518 214.463 112.767 214.657 109.822Z" fill="#F7967C"/>
  <path d="M226.265 108.858C228.644 112.599 230.636 115.693 231.301 119.773C228.025 117.655 226.144 117.033 223.567 115.926C224.694 113.671 225.536 111.492 226.265 108.858Z" fill="#F7967C"/>
  <path d="M68.8538 338.247C74.448 342.425 89.3998 345.37 96.7805 344.44C98.6106 344.208 99.7589 342.928 100.02 341.347C99.4441 341.867 98.689 342.224 97.7762 342.339C89.8281 343.342 73.7263 340.17 67.7021 335.671L67.65 335.629C67.7874 336.795 68.1525 337.723 68.8538 338.247Z" fill="#16223C"/>
  <path d="M100.407 333.484C106.264 337.285 121.377 339.238 128.681 337.823C130.492 337.473 131.554 336.12 131.71 334.525C131.169 335.081 130.44 335.488 129.536 335.663C121.671 337.186 105.396 335.082 99.0883 330.99L99.0337 330.951C99.247 332.105 99.6727 333.007 100.407 333.484Z" fill="#16223C"/>
  <path d="M243.666 339.681C239.937 343.078 224.331 345.868 217.416 344.855C215.726 344.607 214.732 343.434 214.558 341.994C215.05 342.43 215.693 342.735 216.48 342.85C223.802 343.923 240.33 340.969 244.278 337.371C244.487 337.181 244.667 336.951 244.818 336.688C244.696 337.993 244.348 339.059 243.666 339.681Z" fill="#24427B"/>
  <path d="M217.337 333.817C213.454 337.037 197.735 339.099 190.875 337.766C189.2 337.44 188.261 336.221 188.154 334.775C188.624 335.233 189.252 335.568 190.034 335.719C197.299 337.132 213.946 334.948 218.057 331.538C218.275 331.357 218.463 331.136 218.628 330.88C218.444 332.179 218.048 333.227 217.337 333.817Z" fill="#24427B"/>
  <path d="M277.425 123.091C282.094 121.468 286.041 119.556 285.35 118.548C284.289 116.998 274.882 121.45 271.25 121.434C270.864 118.995 273.536 117.372 273.142 116.29C272.249 113.837 265.194 121.373 265.526 128.327C265.611 130.095 267.802 131.753 271.399 131.51C278.028 131.062 286.558 128.101 286.062 126.429C285.792 125.52 283.96 127.058 279.582 127.468C283.845 126.406 288.581 125 287.907 123.277C287.534 122.321 281.8 124.934 278.36 125.409C282.009 124.023 288.614 121.772 287.924 120.66C287.028 119.213 281.317 122.522 277.425 123.091Z" fill="#AA7671"/>
  <path d="M156.079 111.649C151.211 110.794 147.007 109.537 147.528 108.432C148.328 106.731 158.326 109.464 161.909 108.867C161.9 106.398 158.493 105.174 159.219 104.25C160.655 102.419 167.837 108.237 168.988 114.069C169.703 117.684 167.481 118.238 163.35 118.861C156.781 119.851 147.863 118.056 148.086 116.324C148.207 115.384 150.262 116.61 154.648 116.315C150.27 115.948 145.372 115.318 145.761 113.51C145.977 112.506 152.054 114.168 155.526 114.087C151.702 113.302 144.822 112.137 145.325 110.929C145.979 109.357 152.146 111.71 156.079 111.649Z" fill="#AA7671"/>
  <path d="M207.499 41.3876C203.714 40.4738 200.425 42.483 199.493 46.3445C198.561 50.2051 200.553 53.5708 204.338 54.4845C208.123 55.3974 211.507 53.3302 212.438 49.4696C213.371 45.6082 211.284 42.3005 207.499 41.3876ZM196.151 14.053L206.522 16.5562C207.695 12.0318 210.193 10.3119 213.903 11.2069C217.233 12.0114 218.854 13.925 218.087 17.1048C216.333 24.372 206.857 22.8056 204.043 34.4641L214.111 36.8948C216.25 28.0372 228.273 29.3366 231.033 17.9059C233.079 9.4263 227.947 3.14017 217.802 0.691586C206.977 -1.92081 198.912 2.94222 196.151 14.053Z" fill="#8EAFDD"/>
  <path d="M150.183 79.8626C147.44 79.5324 145.29 81.2208 144.953 84.0184C144.616 86.8159 146.298 89.0213 149.04 89.3515C151.783 89.6817 153.995 87.9455 154.332 85.148C154.669 82.3504 152.925 80.1928 150.183 79.8626ZM139.924 61.5434L147.439 62.4486C147.89 59.1639 149.508 57.7451 152.196 58.0685C154.609 58.3594 155.91 59.5735 155.632 61.877C154.998 67.1427 148.192 66.8237 147.174 75.2709L154.47 76.1496C155.243 69.7321 163.822 69.6519 164.82 61.3694C165.559 55.2266 161.423 51.2227 154.072 50.3371C146.229 49.3926 140.95 53.487 139.924 61.5434Z" fill="#8EAFDD"/>
  <path d="M83.4189 33.9042C80.7161 34.568 79.2887 36.9253 79.9661 39.6818C80.6436 42.4393 83.0137 43.9204 85.7165 43.2566C88.4193 42.5929 89.8868 40.1682 89.2093 37.4116C88.5328 34.6542 86.1217 33.2405 83.4189 33.9042ZM67.2335 20.2834L74.639 18.4636C73.8959 15.2071 74.9171 13.2943 77.5653 12.6433C79.944 12.0598 81.6017 12.7414 82.1596 15.0117C83.4343 20.2015 76.905 22.3208 78.95 30.6451L86.1397 28.8799C84.586 22.5554 92.645 19.4285 90.6401 11.2663C89.153 5.21138 83.8293 2.90784 76.5859 4.68755C68.8554 6.5867 65.3352 12.3234 67.2335 20.2834Z" fill="#8EAFDD"/>
</svg>
