<svg viewBox="0 0 3385 983" fill="none" xmlns="http://www.w3.org/2000/svg">
  <path d="M388.075 13.6654C419.634 -4.55514 458.516 -4.55514 490.075 13.6654L827.15 208.276C858.709 226.496 878.15 260.169 878.15 296.61V685.831C878.15 722.272 858.709 755.945 827.15 774.165L490.075 968.776C458.516 986.996 419.634 986.996 388.075 968.776L51 774.165C19.4411 755.945 0 722.272 0 685.831V296.61C0 260.169 19.4411 226.496 51 208.276L388.075 13.6654Z" fill="#633AE5"/>
  <path fill-rule="evenodd" clip-rule="evenodd" d="M587.612 536.703L627.095 610.445C636.573 628.148 621.314 651.14 606.223 659.534C587.927 669.708 560.536 669.629 547.234 650.471L478.984 534.904L441.507 471.454L382.813 372.076L347.135 311.644L332.103 286.205C315.478 258.632 259.418 278.184 276.102 318.878L309.657 376.588L285.256 418.875L199.653 567.214C165.184 651.965 203.842 688.689 232.54 709.371C286.288 748.129 362.069 725.54 397.777 670.681L409.053 651.838L410.223 649.872C418.069 635.638 414.077 617.581 400.598 608.037C386.51 598.06 367.043 600.94 356.445 614.574L342.819 637.693C301.487 695.904 223.18 651.907 258.219 589.508L320.777 480.34L345.198 437.719L402.545 536.359L439.796 600.429L487.115 681.798C532.723 744.423 606.892 733.365 640.417 714.246C689.525 686.241 704.941 618.328 680.962 568.256L645.175 504.796C644.831 503.735 644.458 502.653 644.045 501.562L523.177 293.154C496.809 251.113 420.35 237.587 374.506 275.481L408.709 334.665C435.48 310.474 465.899 321.965 478.522 343.659L526.352 428.312L571.764 508.669C573.484 510.851 575.047 513.26 576.453 515.884L587.573 536.634L587.612 536.703Z" fill="white"/>
  <path d="M1271.64 351.604L1142.33 770.5H1005L1199.88 240.141H1286.94L1271.64 351.604ZM1378.73 770.5L1249.05 351.604L1232.3 240.141H1320.45L1516.42 770.5H1378.73ZM1373.63 572.708V671.422H1101.53V572.708H1373.63Z" fill="#633AE5"/>
  <path d="M1663.39 452.139V922.031H1540.63V376.373H1655.01L1663.39 452.139ZM1905.26 568.701V576.351C1905.26 605.006 1901.98 631.596 1895.42 656.123C1888.86 680.65 1879.15 702.02 1866.28 720.232C1853.41 738.445 1837.38 752.651 1818.2 762.851C1799.26 772.807 1777.28 777.785 1752.27 777.785C1728.71 777.785 1708.44 772.564 1691.44 762.122C1674.44 751.68 1660.23 737.231 1648.82 718.775C1637.4 700.32 1628.18 679.193 1621.13 655.395C1614.09 631.596 1608.51 606.463 1604.38 579.993V570.158C1608.51 541.746 1614.09 515.398 1621.13 491.114C1628.18 466.588 1637.4 445.218 1648.82 427.005C1660.23 408.792 1674.32 394.586 1691.07 384.387C1708.07 374.188 1728.35 369.088 1751.9 369.088C1776.92 369.088 1798.89 373.823 1817.83 383.294C1837.02 392.765 1853.05 406.364 1865.92 424.091C1879.03 441.575 1888.86 462.581 1895.42 487.107C1901.98 511.634 1905.26 538.832 1905.26 568.701ZM1782.5 576.351V568.701C1782.5 553.402 1781.41 539.439 1779.22 526.812C1777.04 513.941 1773.52 502.771 1768.66 493.3C1764.05 483.829 1757.85 476.544 1750.08 471.444C1742.31 466.345 1732.72 463.795 1721.31 463.795C1708.19 463.795 1697.14 465.859 1688.16 469.987C1679.42 473.873 1672.37 479.944 1667.03 488.2C1661.93 496.214 1658.29 506.292 1656.1 518.434C1654.16 530.333 1653.31 544.296 1653.55 560.323V590.192C1653.07 608.648 1654.89 624.918 1659.02 639.003C1663.15 652.845 1670.31 663.651 1680.51 671.422C1690.71 679.193 1704.55 683.078 1722.03 683.078C1733.69 683.078 1743.4 680.407 1751.17 675.064C1758.95 669.479 1765.14 661.83 1769.75 652.116C1774.37 642.16 1777.64 630.746 1779.59 617.876C1781.53 605.006 1782.5 591.164 1782.5 576.351Z" fill="#633AE5"/>
  <path d="M2091.2 452.139V922.031H1968.45V376.373H2082.82L2091.2 452.139ZM2333.07 568.701V576.351C2333.07 605.006 2329.79 631.596 2323.23 656.123C2316.68 680.65 2306.96 702.02 2294.09 720.232C2281.22 738.445 2265.2 752.651 2246.01 762.851C2227.07 772.807 2205.09 777.785 2180.08 777.785C2156.53 777.785 2136.25 772.564 2119.25 762.122C2102.25 751.68 2088.05 737.231 2076.63 718.775C2065.22 700.32 2055.99 679.193 2048.95 655.395C2041.91 631.596 2036.32 606.463 2032.19 579.993V570.158C2036.32 541.746 2041.91 515.398 2048.95 491.114C2055.99 466.588 2065.22 445.218 2076.63 427.005C2088.05 408.792 2102.13 394.586 2118.89 384.387C2135.88 374.188 2156.16 369.088 2179.72 369.088C2204.73 369.088 2226.71 373.823 2245.65 383.294C2264.83 392.765 2280.86 406.364 2293.73 424.091C2306.84 441.575 2316.68 462.581 2323.23 487.107C2329.79 511.634 2333.07 538.832 2333.07 568.701ZM2210.31 576.351V568.701C2210.31 553.402 2209.22 539.439 2207.04 526.812C2204.85 513.941 2201.33 502.771 2196.47 493.3C2191.86 483.829 2185.67 476.544 2177.9 471.444C2170.12 466.345 2160.53 463.795 2149.12 463.795C2136.01 463.795 2124.96 465.859 2115.97 469.987C2107.23 473.873 2100.19 479.944 2094.84 488.2C2089.75 496.214 2086.1 506.292 2083.92 518.434C2081.97 530.333 2081.12 544.296 2081.37 560.323V590.192C2080.88 608.648 2082.7 624.918 2086.83 639.003C2090.96 652.845 2098.12 663.651 2108.32 671.422C2118.52 679.193 2132.36 683.078 2149.85 683.078C2161.5 683.078 2171.22 680.407 2178.99 675.064C2186.76 669.479 2192.95 661.83 2197.57 652.116C2202.18 642.16 2205.46 630.746 2207.4 617.876C2209.34 605.006 2210.31 591.164 2210.31 576.351Z" fill="#633AE5"/>
  <path d="M2524.84 376.373V770.5H2401.72V376.373H2524.84ZM2394.44 274.745C2394.44 257.261 2400.75 242.933 2413.38 231.763C2426.01 220.592 2442.4 215.007 2462.56 215.007C2482.71 215.007 2499.1 220.592 2511.73 231.763C2524.36 242.933 2530.67 257.261 2530.67 274.745C2530.67 292.229 2524.36 306.557 2511.73 317.728C2499.1 328.898 2482.71 334.483 2462.56 334.483C2442.4 334.483 2426.01 328.898 2413.38 317.728C2400.75 306.557 2394.44 292.229 2394.44 274.745Z" fill="#633AE5"/>
  <path d="M2738.74 211V770.5H2615.62V211H2738.74Z" fill="#121116"/>
  <path d="M2951.64 376.373V770.5H2828.52V376.373H2951.64ZM2821.23 274.745C2821.23 257.261 2827.55 242.933 2840.18 231.763C2852.8 220.592 2869.2 215.007 2889.35 215.007C2909.51 215.007 2925.9 220.592 2938.53 231.763C2951.15 242.933 2957.47 257.261 2957.47 274.745C2957.47 292.229 2951.15 306.557 2938.53 317.728C2925.9 328.898 2909.51 334.483 2889.35 334.483C2869.2 334.483 2852.8 328.898 2840.18 317.728C2827.55 306.557 2821.23 292.229 2821.23 274.745Z" fill="#121116"/>
  <path d="M3139.04 376.373L3194.41 484.922L3251.6 376.373H3379.09L3275.64 568.337L3384.55 770.5H3255.97L3194.41 653.938L3133.21 770.5H3004.63L3113.54 568.337L3010.46 376.373H3139.04Z" fill="#121116"/>
</svg>
