<svg viewBox="0 0 88 88" fill="none" xmlns="http://www.w3.org/2000/svg">
  <rect width="88" height="88" rx="10" fill="#9155FD"/>
  <path d="M59.4901 63.9047H56.8181L56.8178 59.0168C56.8178 54.1164 54.1948 49.6114 49.4322 46.3317C48.8296 45.9164 48.4551 45.023 48.4551 44C48.4551 42.977 48.8296 42.0836 49.4319 41.6686C54.1948 38.3885 56.8178 33.8836 56.8181 28.9831V24.0953H59.4901C60.3239 24.0953 61 23.4022 61 22.5476C61 21.6929 60.3238 21 59.4901 21H28.5099C27.6761 21 27 21.6931 27 22.5476C27 23.4024 27.6762 24.0953 28.5099 24.0953H31.1819V28.9831C31.1819 33.8839 33.8047 38.3889 38.5673 41.6684C39.1701 42.0836 39.5446 42.9768 39.5446 44C39.5446 45.023 39.1701 45.9164 38.5675 46.3314C33.8047 49.6112 31.1819 54.1163 31.1819 59.0168V63.9047H28.5099C27.6761 63.9047 27 64.5978 27 65.4524C27 66.3072 27.6762 67 28.5099 67H59.4901C60.3239 67 61 66.3071 61 65.4524C61 64.5976 60.3238 63.9047 59.4901 63.9047ZM42.4901 38.0931C42.4901 37.2385 43.1662 36.5454 44 36.5454C44.8338 36.5454 45.5099 37.2385 45.5099 38.0931V40.8289C45.5099 41.6837 44.8338 42.3765 44 42.3765C43.1662 42.3765 42.4901 41.6836 42.4901 40.8289V38.0931ZM42.9321 47.9427C43.2129 47.6551 43.6024 47.4893 43.9995 47.4893C44.3967 47.4893 44.7862 47.6549 45.067 47.9427C45.3492 48.2306 45.5094 48.63 45.5094 49.0369C45.5094 49.4438 45.3492 49.8432 45.067 50.131C44.7862 50.4188 44.3967 50.5845 43.9995 50.5845C43.6024 50.5845 43.2129 50.4189 42.9321 50.131C42.6512 49.8432 42.4897 49.4438 42.4897 49.0369C42.4897 48.63 42.6511 48.2308 42.9321 47.9427ZM34.6978 63.9197C35.9296 59.1329 42.2775 53.9242 43.0699 53.2894C43.616 52.8517 44.3834 52.8514 44.9299 53.2894C45.7223 53.9244 52.0701 59.1329 53.3019 63.9197H34.6978Z" fill="white"/>
</svg>
