<svg viewBox="0 0 88 88" fill="none" xmlns="http://www.w3.org/2000/svg">
  <rect width="88" height="88" rx="10" fill="#56CA00"/>
  <path d="M43.7142 21V24.2857H60.1428V48.9286H63.4285V24.2857C63.4275 23.4146 63.081 22.5794 62.4651 21.9635C61.8491 21.3475 61.0139 21.001 60.1428 21H43.7142Z" fill="white"/>
  <path d="M35.5 29.2142V32.4999H51.9286V57.1428H55.2143V32.4999C55.2133 31.6288 54.8668 30.7937 54.2508 30.1777C53.6348 29.5617 52.7997 29.2152 51.9286 29.2142H35.5Z" fill="white"/>
  <path d="M27.2857 37.4286H43.7143C44.5854 37.4296 45.4206 37.7761 46.0365 38.3921C46.6525 39.008 46.999 39.8432 47 40.7143V63.7143C46.999 64.5854 46.6525 65.4206 46.0365 66.0365C45.4206 66.6525 44.5854 66.999 43.7143 67H27.2857C26.4146 66.999 25.5794 66.6525 24.9635 66.0365C24.3475 65.4206 24.001 64.5854 24 63.7143V40.7143C24.001 39.8432 24.3475 39.008 24.9635 38.3921C25.5794 37.7761 26.4146 37.4296 27.2857 37.4286ZM43.7143 40.7143L27.2857 40.7123V63.7143H43.7143V40.7143Z" fill="white"/>
</svg>
