<svg viewBox="0 0 88 88" fill="none" xmlns="http://www.w3.org/2000/svg">
  <rect width="88" height="88" rx="10" fill="#FFB400"/>
  <path d="M53.7008 21H34.3474C32.4952 21 31 22.5019 31 24.3508V63.6525C31 65.4997 32.4952 67 34.3474 67H53.7008C55.5497 67 57.0482 65.4997 57.0482 63.6525V24.3508C57.0482 22.5019 55.5497 21 53.7008 21ZM39.2486 23.035H48.803C49.0443 23.035 49.2404 23.3954 49.2404 23.8413C49.2404 24.2872 49.0443 24.6492 48.803 24.6492H39.2486C39.0055 24.6492 38.8128 24.2872 38.8128 23.8413C38.8128 23.3954 39.0055 23.035 39.2486 23.035ZM44.0258 63.6927C42.8474 63.6927 41.8886 62.7339 41.8886 61.5538C41.8886 60.3737 42.8474 59.4183 44.0258 59.4183C45.2008 59.4183 46.1596 60.3737 46.1596 61.5538C46.1596 62.7339 45.2008 63.6927 44.0258 63.6927ZM54.5406 56.3691H33.5093V26.654H54.5406V56.3691Z" fill="white"/>
</svg>
