<svg viewBox="0 0 48 48" fill="none" xmlns="http://www.w3.org/2000/svg">
  <circle cx="24" cy="24" r="24" fill="#F2EAFF"/>
  <path d="M35.0771 13.3186C34.8541 13.1772 34.6048 13.0802 34.3433 13.033C34.0819 12.9857 33.8135 12.9893 33.5535 13.0434C33.2934 13.0975 33.0469 13.2011 32.8278 13.3483C32.6088 13.4955 32.4216 13.6833 32.277 13.9012L20.9318 30.9781L15.399 25.9824C15.2038 25.8061 14.9749 25.6692 14.7255 25.5793C14.4761 25.4894 14.211 25.4483 13.9453 25.4585C13.4088 25.479 12.9026 25.7068 12.5381 26.0918C12.1735 26.4768 11.9805 26.9874 12.0016 27.5113C12.0226 28.0353 12.2558 28.5296 12.6501 28.8856L19.9148 35.4445C19.9148 35.4445 20.1233 35.6198 20.2198 35.6811C20.4429 35.8226 20.6923 35.9197 20.9538 35.967C21.2153 36.0143 21.4838 36.0107 21.7439 35.9566C22.004 35.9025 22.2506 35.7989 22.4697 35.6516C22.6888 35.5044 22.876 35.3164 23.0207 35.0985L35.6738 16.053C35.8185 15.8352 35.9179 15.5917 35.9662 15.3364C36.0146 15.0811 36.011 14.819 35.9556 14.5651C35.9002 14.3112 35.7941 14.0704 35.6433 13.8565C35.4926 13.6426 35.3002 13.4598 35.0771 13.3186Z" fill="#9155FD"/>
</svg>
