<svg viewBox="0 0 26 26" fill="none" xmlns="http://www.w3.org/2000/svg">
  <path fill-rule="evenodd" clip-rule="evenodd" d="M13 2.6C7.25624 2.6 2.6 7.25624 2.6 13C2.6 18.7438 7.25624 23.4 13 23.4C18.7438 23.4 23.4 18.7438 23.4 13C23.4 7.25624 18.7438 2.6 13 2.6ZM0 13C0 5.82029 5.82029 0 13 0C20.1796 0 26 5.82029 26 13C26 20.1796 20.1796 26 13 26C5.82029 26 0 20.1796 0 13ZM12.7769 6.18457C13.4949 6.18457 14.0769 6.76659 14.0769 7.48457V13.9418L18.6619 15.6849C19.3331 15.9399 19.6703 16.6908 19.4151 17.3619C19.16 18.0331 18.4092 18.3703 17.7381 18.1151L12.315 16.0537C11.8105 15.8618 11.4769 15.3782 11.4769 14.8385V7.48457C11.4769 6.76659 12.0589 6.18457 12.7769 6.18457Z" fill="#8F9297"/>
</svg>
