<svg viewBox="0 0 144 144" fill="none" xmlns="http://www.w3.org/2000/svg">
    <g clip-path="url(#clip0_114_174)">
        <rect width="144" height="144" rx="72" fill="#F2EAFF"/>
        <path d="M110.816 115.278C105.524 105.26 71.5 98.9731 71.5 98.9731C71.5 98.9731 37.4756 105.26 32.1837 115.278C28.272 129.18 25 146.844 25 146.844H71.5H118C118 146.844 115.79 127.904 110.816 115.278Z" fill="#E4B692"/>
        <path d="M71.5 98.9731C71.5 98.9731 105.524 105.26 110.816 115.278C115.791 127.904 118 146.844 118 146.844H71.5V98.9731Z" fill="#E4B692"/>
        <path d="M80.7626 78.606H62.2374V109.609H80.7626V78.606Z" fill="#E4B692"/>
        <path d="M80.7626 78.606H71.5V109.609H80.7626V78.606Z" fill="#E4B692"/>
        <path opacity="0.1" d="M62.2374 92.9722C63.9035 97.7549 70.6267 100.496 75.5648 100.496C77.3511 100.496 79.0886 100.197 80.7626 99.6489V78.606H62.2374V92.9722Z" fill="#DDAC8C"/>
        <path d="M95.3171 59.0433C95.3171 39.6789 84.6538 28.6675 71.5 28.6675C58.3462 28.6675 47.6829 39.6789 47.6829 59.0433C47.6829 85.0901 58.3462 94.1077 71.5 94.1077C84.6527 94.1077 95.3171 84.0048 95.3171 59.0433Z" fill="#F1C9A5"/>
        <path d="M91.6912 72.4716C87.3735 72.0191 84.4588 67.368 85.1903 62.0874C85.9127 56.8023 90.0013 52.8781 94.3213 53.3272C98.6367 53.7764 101.547 58.4264 100.819 63.7115C100.094 68.9977 96.0089 72.9185 91.6912 72.4716Z" fill="#E4B692"/>
        <path d="M42.3502 63.7124C41.6209 58.4273 44.5323 53.7773 48.8454 53.3281C53.1677 52.8779 57.2563 56.802 57.981 62.0883C58.7091 67.3689 55.7921 72.0211 51.4778 72.4725C47.159 72.9183 43.0738 68.9975 42.3502 63.7124Z" fill="#F1C9A5"/>
        <path d="M95.3171 59.0433C95.3171 39.6789 84.6538 28.6675 71.5 28.6675V94.1077C84.6527 94.1077 95.3171 84.0048 95.3171 59.0433Z" fill="#F1C9A5"/>
        <path d="M110.816 115.278C107.725 109.428 94.8453 104.854 84.6572 102.058L71.5 117.097L58.3428 102.058C48.1547 104.854 35.2742 109.428 32.1837 115.278C28.272 129.18 25 146.844 25 146.844H71.5H118C118 146.844 115.79 127.904 110.816 115.278Z" fill="#633AE5"/>
        <path d="M51.5152 68.3127C51.5152 68.3127 68.3403 56.8306 70.3205 50.4975C70.122 56.2374 70.3205 61.3842 70.3205 61.3842C70.3205 61.3842 86.7509 45.1534 85.1665 31.8907C66.5596 21.9919 52.1095 33.474 48.7433 38.8181C45.3772 44.1622 44.5856 59.0093 51.5152 68.3127Z" fill="#262421"/>
        <path d="M82.7904 37.2336C82.7904 37.2336 90.5117 46.5393 92.095 65.1461C97.6375 57.029 103.576 33.4728 85.1665 31.8906C83.5821 34.8587 82.7904 37.2336 82.7904 37.2336Z" fill="#262421"/>
        <path d="M88.5099 120.259L78.2153 110.69L71.483 117.096L82.6713 101.123C82.6713 101.123 86.3199 101.526 87.6173 105.5C88.0234 111.746 88.5099 120.259 88.5099 120.259Z" fill="white"/>
        <path d="M54.4561 120.259L64.7507 110.69L71.483 117.096L60.2946 101.123C60.2946 101.123 56.6461 101.526 55.3486 105.5C54.9426 111.746 54.4561 120.259 54.4561 120.259Z" fill="white"/>
    </g>
    <defs>
        <clipPath id="clip0_114_174">
            <rect width="144" height="144" rx="72" fill="white"/>
        </clipPath>
    </defs>
</svg>
